<?xml version="1.0" encoding="UTF-8" standalone="no"?>
<!DOCTYPE svg PUBLIC "-//W3C//DTD SVG 1.1//EN" "http://www.w3.org/Graphics/SVG/1.1/DTD/svg11.dtd">
<!-- Created with Vectornator (http://vectornator.io/) -->
<svg height="100%" stroke-miterlimit="10" style="fill-rule:nonzero;clip-rule:evenodd;stroke-linecap:round;stroke-linejoin:round;" version="1.1" viewBox="0 0 1536 396" width="100%" xml:space="preserve" xmlns="http://www.w3.org/2000/svg" xmlns:vectornator="http://vectornator.io" xmlns:xlink="http://www.w3.org/1999/xlink">
<defs/>
<g id="Layer-1" vectornator:layerName="Layer 1">
<g fill="#ffffff" opacity="1" stroke="none">
<path d="M336.039 123.233L336.039 134.854C336.039 139.639 335.099 142.658 333.219 143.911C331.339 145.165 324.446 148.526 312.541 153.994C300.635 159.463 289.213 165.9 278.275 173.306C282.491 167.153 286.336 162.596 289.811 159.634C293.286 156.672 297.986 152.969 303.91 148.526C298.783 146.475 291.662 145.449 282.548 145.449C268.42 145.449 253.182 148.241 236.833 153.823C220.483 159.406 206.584 166.071 195.133 173.819C183.683 181.566 177.958 188.06 177.958 193.301C177.958 196.035 179.696 198.285 183.17 200.051C186.645 201.817 192.228 203.185 199.919 204.153C207.609 205.121 217.208 205.777 228.715 206.118C240.222 206.46 254.407 206.631 271.269 206.631C283.573 206.631 291.492 207.087 295.023 207.998C298.555 208.91 300.321 211.017 300.321 214.321C300.321 218.537 298.242 223.351 294.084 228.762C289.925 234.174 284.428 237.393 277.592 238.418C266.996 240.127 258.565 241.58 252.299 242.776C246.033 243.972 238.599 245.995 229.997 248.843C221.395 251.691 211.853 255.793 201.371 261.148C185.762 269.351 173.572 277.668 164.799 286.099C156.026 294.53 151.64 301.992 151.64 308.486C151.64 314.069 154.773 318.427 161.039 321.56C167.305 324.693 176.306 326.26 188.041 326.26C228.487 326.26 269.674 308.088 311.601 271.743C311.828 282.909 310.604 292.735 307.926 301.223C305.249 309.711 299.809 317.829 291.606 325.576C284.77 332.07 274.772 338.28 261.613 344.204C248.454 350.129 234.098 354.857 218.546 358.389C202.995 361.921 188.383 363.687 174.711 363.687C158.874 363.687 145.772 359.898 135.404 352.322C125.037 344.745 119.853 334.691 119.853 322.158C119.853 313.044 122.359 303.986 127.372 294.986C132.385 285.985 140.076 277.354 150.443 269.094C160.811 260.834 173.942 253.343 189.835 246.621C205.729 239.899 224.044 234.601 244.779 230.728C247.742 230.158 249.223 229.247 249.223 227.993C249.223 226.626 247.485 225.8 244.01 225.515C240.535 225.23 234.155 225.031 224.87 224.917C215.584 224.803 207.41 224.404 200.346 223.721C193.282 223.037 185.819 221.556 177.958 219.277C169.869 216.771 163.631 212.385 159.245 206.118C154.858 199.852 152.665 192.902 152.665 185.269C152.665 175.471 156.197 165.615 163.261 155.703C170.325 145.791 180.294 136.847 193.168 128.872C206.042 120.897 221.623 114.488 239.909 109.646C258.195 104.804 278.218 102.383 299.98 102.383C312.512 102.383 321.256 103.095 326.212 104.519C331.169 105.943 334.045 107.823 334.843 110.159C335.64 112.494 336.039 116.852 336.039 123.233Z"/>
<path d="M404.398 308.145C420.121 294.245 433.622 282.14 444.901 271.829C456.181 261.518 465.039 253.4 471.476 247.476C477.913 241.551 483.581 236.538 488.481 232.437C493.38 228.335 496.513 226.284 497.88 226.284C500.5 226.17 503.007 228.876 505.399 234.402C507.792 239.928 508.988 244.343 508.988 247.647C508.988 249.811 505.371 254.91 498.136 262.942C490.902 270.974 485.49 277.383 481.901 282.168C478.312 286.953 476.518 291.966 476.518 297.207C476.518 300.283 477.543 302.761 479.594 304.641C481.645 306.521 484.094 307.461 486.942 307.461C490.246 307.461 494.206 305.752 498.82 302.334C503.434 298.916 510.697 292.821 520.609 284.048L520.609 296.182C510.697 305.524 501.697 313.585 493.607 320.364C485.518 327.143 478.483 332.213 472.502 335.574C466.52 338.935 461.536 340.615 457.548 340.615C454.016 340.615 451.054 339.277 448.661 336.599C446.269 333.922 445.072 330.589 445.072 326.602C445.072 322.728 445.756 318.797 447.123 314.81C448.49 310.822 450.598 306.094 453.446 300.625C456.295 295.156 460.054 288.577 464.726 280.886C469.397 273.196 473.669 266.161 477.543 259.78C465.922 269.237 455.611 278.351 446.61 287.124C437.61 295.897 430.261 303.559 424.564 310.11C418.868 316.661 414.368 321.817 411.064 325.576C404.683 332.64 398.759 336.172 393.29 336.172C387.366 336.172 384.403 331.957 384.403 323.526C384.403 320.108 386.625 313.984 391.068 305.154C395.512 296.324 401.835 285.073 410.038 271.402C410.722 270.49 411.064 269.066 411.064 267.129C411.064 264.85 409.924 263.711 407.646 263.711C405.139 263.711 401.522 266.075 396.794 270.803C392.065 275.532 382.922 285.415 369.364 300.454C365.605 304.67 361.361 310.167 356.632 316.946C351.904 323.725 348.515 328.254 346.464 330.532C344.413 332.811 342.362 333.95 340.312 333.95C336.21 333.95 332.393 330.305 328.861 323.013C325.329 315.721 323.564 307.233 323.564 297.549C323.564 290.485 324.731 284.39 327.067 279.263C329.403 274.136 333.02 267.756 337.919 260.122C345.552 249.071 351.79 241.181 356.632 236.453C361.474 231.725 366.573 229.361 371.928 229.361C375.232 229.361 378.023 230.016 380.302 231.326C382.58 232.636 383.72 234.43 383.72 236.709C383.72 239.102 381.641 243.032 377.482 248.501C373.323 253.97 368.054 259.61 361.674 265.42C358.256 268.724 355.009 272.797 351.933 277.639C348.856 282.481 347.318 285.985 347.318 288.15C347.318 291.226 348.515 292.764 350.907 292.764C352.844 292.764 357.743 288.776 365.605 280.801C373.466 272.826 382.096 264.138 391.496 254.739C400.895 245.34 409.611 237.535 417.643 231.326C425.675 225.117 432.483 222.012 438.065 222.012C441.483 222.012 444.303 223.294 446.525 225.857C448.747 228.421 449.857 231.582 449.857 235.342C449.857 237.848 448.148 242.377 444.731 248.928C441.313 255.479 436.328 263.569 429.777 273.196C423.226 282.823 414.766 294.473 404.398 308.145Z"/>
<path d="M517.704 297.891L517.704 286.782C523.856 279.491 528.528 273.281 531.718 268.154C528.072 266.901 525.423 265.363 523.771 263.54C522.119 261.717 521.293 258.983 521.293 255.337C521.293 251.236 523.002 246.052 526.42 239.785C529.838 233.519 534.053 227.652 539.066 222.183C544.079 216.714 548.637 213.182 552.738 211.587C554.333 210.79 555.871 210.391 557.353 210.391C559.631 210.391 560.771 211.473 560.771 213.638C560.771 215.575 559.005 219.505 555.473 225.43C578.943 221.784 593.754 219.961 599.906 219.961C602.299 219.961 603.951 220.189 604.862 220.645C606.799 221.67 608.394 224.063 609.648 227.822C610.901 231.582 611.527 235.342 611.527 239.102C611.527 241.494 610.474 244.086 608.366 246.878C606.258 249.669 602.641 253.742 597.514 259.097C591.475 265.591 586.405 272.655 582.304 280.288C578.202 287.922 576.151 293.675 576.151 297.549C576.151 302.904 579.455 305.581 586.064 305.581C593.013 305.581 605.09 298.517 622.294 284.39L622.294 295.84C612.838 305.752 605.033 313.556 598.881 319.253C592.729 324.95 587.032 329.479 581.791 332.84C576.55 336.201 571.879 337.881 567.777 337.881C562.992 337.881 559.005 335.688 555.814 331.301C552.624 326.915 551.029 320.563 551.029 312.246C551.029 307.347 552.283 301.764 554.789 295.498C557.296 289.232 560.97 282.424 565.812 275.076C570.654 267.727 576.094 260.407 582.133 253.115C578.943 253.799 575.354 254.511 571.366 255.252C567.379 255.992 563.163 256.761 558.72 257.559C554.276 258.356 550.858 258.983 548.466 259.439C541.402 273.566 531.148 286.384 517.704 297.891Z"/>
<path d="M648.954 290.884L648.954 295.156C648.954 301.878 650.606 307.119 653.91 310.879C657.214 314.639 661.544 316.519 666.898 316.519C672.481 316.519 678.263 315.208 684.245 312.588C690.226 309.968 696.179 306.493 702.104 302.163C708.028 297.834 715.263 292.023 723.808 284.732L723.808 295.156C710.933 310.651 698.856 322.529 687.577 330.789C676.298 339.049 664.848 343.179 653.227 343.179C643.087 343.179 635.054 339.248 629.13 331.387C623.205 323.526 620.243 312.759 620.243 299.087C620.243 287.124 623.035 276.272 628.617 266.531C634.2 256.79 643.314 246.507 655.961 235.684C664.62 228.278 673.222 222.695 681.767 218.936C690.312 215.176 697.945 213.296 704.667 213.296C710.022 213.296 714.266 214.521 717.399 216.97C720.532 219.42 722.099 223.094 722.099 227.993C722.099 235.171 719.421 242.32 714.066 249.441C708.712 256.562 700.537 263.626 689.543 270.632C678.548 277.639 665.019 284.39 648.954 290.884ZM650.663 279.776C660.917 275.788 669.69 270.832 676.981 264.907C684.273 258.983 689.656 253.315 693.131 247.903C696.606 242.491 698.344 238.532 698.344 236.026C698.344 233.405 697.148 232.095 694.755 232.095C692.704 232.095 689.372 233.405 684.757 236.026C680.143 238.646 675.472 242.064 670.744 246.279C666.016 250.495 661.772 255.451 658.012 261.148C654.252 266.844 651.802 273.054 650.663 279.776Z"/>
<path d="M1029.03 203.897C1017.87 220.303 1008.47 235.171 1000.83 248.501C993.201 261.831 987.475 273.196 983.659 282.595C979.842 291.995 977.934 298.973 977.934 303.53C977.934 311.961 981.636 316.177 989.042 316.177C996.903 316.177 1014.68 305.467 1042.36 284.048L1042.02 295.84C1010.01 328.539 986.536 344.888 971.61 344.888C953.837 344.888 944.95 335.659 944.95 317.202C944.95 306.151 950.362 290.485 961.186 270.205C972.009 249.925 988.529 223.721 1010.75 191.592C984.656 220.075 962.866 243.488 945.377 261.831C927.889 280.174 909.802 297.948 891.117 315.152C886.674 319.367 882.629 323.212 878.983 326.687C875.338 330.162 871.692 332.896 868.046 334.89C864.4 336.884 860.412 337.881 856.083 337.881C849.361 337.881 843.778 335.261 839.335 330.02C834.892 324.779 832.67 317.373 832.67 307.803C832.67 301.651 834.493 294.501 838.139 286.355C841.785 278.209 847.31 268.724 854.716 257.901C862.121 247.077 871.236 235.228 882.06 222.354C899.605 201.276 911.739 186.408 918.461 177.749C925.183 169.09 928.544 163.565 928.544 161.172C928.544 159.463 927.633 158.609 925.81 158.609C923.645 158.609 920.028 159.605 914.958 161.599C909.888 163.593 903.194 166.84 894.877 171.34C886.56 175.841 875.85 182.25 862.748 190.567C852.95 196.719 843.294 201.703 833.781 205.52C824.267 209.337 817.574 211.245 813.7 211.245C811.422 211.245 809.513 210.619 807.975 209.365C806.437 208.112 805.668 206.517 805.668 204.58C805.668 201.846 806.864 197.374 809.257 191.165C811.649 184.955 814.754 178.518 818.571 171.853C822.388 165.188 825.777 160.204 828.739 156.9C836.942 147.785 848.165 139.753 862.406 132.803C876.648 125.853 891.288 120.498 906.327 116.738C921.366 112.979 933.785 111.099 943.583 111.099C950.875 111.099 956.201 112.324 959.562 114.773C962.923 117.223 964.604 121.239 964.604 126.821C964.604 139.012 963.065 148.44 959.989 155.105C956.913 161.77 951.786 170.401 944.608 180.996C941.988 185.098 938.086 190.709 932.902 197.83C927.718 204.951 922.477 211.9 917.179 218.679C911.881 225.458 907.523 231.126 904.106 235.684C900.688 240.241 897.156 245.254 893.51 250.723C883.598 265.306 877.331 274.706 874.711 278.921C872.091 283.137 870.78 286.782 870.78 289.859C870.78 293.846 872.66 295.84 876.42 295.84C879.838 295.84 883.142 294.615 886.332 292.166C889.522 289.716 896.358 283.934 906.84 274.819C918.917 264.452 930.652 253.571 942.045 242.178C953.438 230.785 963.806 219.933 973.148 209.622C982.491 199.311 994.34 185.952 1008.7 169.546C1024.76 150.861 1035.01 139.183 1039.46 134.512C1043.9 129.841 1047.55 127.505 1050.39 127.505C1052.9 127.505 1055.15 129.527 1057.15 133.572C1059.14 137.617 1060.14 143.285 1060.14 150.576C1060.14 154.45 1058.17 159.605 1054.24 166.043C1050.31 172.48 1041.91 185.098 1029.03 203.897ZM980.155 77.6027C977.421 77.6027 975.199 76.7482 973.49 75.0392C971.781 73.3302 970.927 71.1086 970.927 68.3742C970.927 66.4373 972.294 62.82 975.028 57.5221C977.763 52.2243 981.095 47.4676 985.026 43.2521C988.957 39.0366 992.916 36.9289 996.903 36.9289C999.866 36.9289 1002.23 37.7549 1004 39.4069C1005.76 41.0589 1006.64 43.366 1006.64 46.3283C1006.64 51.2274 1003.51 57.6645 997.245 65.6398C990.979 73.6151 985.282 77.6027 980.155 77.6027ZM1028.69 77.6027C1026.3 77.6027 1024.19 76.8621 1022.37 75.381C1020.54 73.8999 1019.63 72.077 1019.63 69.9123C1019.63 67.4058 1021.09 63.4466 1023.99 58.0348C1026.9 52.623 1030.37 47.7524 1034.42 43.423C1038.46 39.0936 1042.31 36.9289 1045.95 36.9289C1048.23 36.9289 1050.2 37.6979 1051.85 39.236C1053.5 40.7741 1054.33 42.7964 1054.33 45.3029C1054.33 50.4298 1051.51 57.0949 1045.87 65.298C1040.23 73.5011 1034.5 77.6027 1028.69 77.6027Z"/>
<path d="M1156.01 253.799C1135.96 276.13 1125.93 291.681 1125.93 300.454C1125.93 305.353 1127.93 307.803 1131.91 307.803C1135.22 307.803 1139.52 306.065 1144.82 302.59C1150.11 299.116 1158.4 292.935 1169.68 284.048L1169.68 295.84C1153.5 311.791 1141.08 323.298 1132.43 330.361C1123.77 337.425 1116.7 340.957 1111.23 340.957C1101.89 340.957 1097.22 334.805 1097.22 322.5C1097.22 318.854 1097.79 315.265 1098.93 311.734C1100.07 308.202 1101.64 304.527 1103.63 300.711C1105.62 296.894 1108.67 291.425 1112.77 284.304C1116.87 277.184 1121.6 269.123 1126.96 260.122C1120.46 263.426 1112.32 269.977 1102.52 279.776C1096.14 285.928 1090.73 291.767 1086.28 297.293C1081.84 302.818 1077.08 308.971 1072.01 315.75C1066.94 322.529 1063.24 327.086 1060.9 329.422C1058.57 331.757 1056.21 332.925 1053.81 332.925C1050.17 332.925 1046.81 329.108 1043.73 321.475C1040.65 313.841 1039.12 304.955 1039.12 294.815C1039.12 288.548 1039.83 283.649 1041.25 280.117C1042.68 276.585 1045.5 271.572 1049.71 265.078C1057.57 253.001 1064.35 244.143 1070.05 238.504C1075.74 232.864 1081.21 230.044 1086.45 230.044C1090.1 230.044 1093.03 230.671 1095.26 231.924C1097.48 233.177 1098.59 235.114 1098.59 237.735C1098.59 238.874 1098.25 240.07 1097.56 241.323C1096.88 242.577 1096.11 243.716 1095.26 244.741C1094.4 245.767 1092.61 247.761 1089.87 250.723C1071.87 270.661 1062.87 283.592 1062.87 289.517C1062.87 292.821 1063.95 294.473 1066.12 294.473C1067.48 294.473 1070.13 292.28 1074.06 287.893C1077.99 283.507 1083.06 277.753 1089.27 270.632C1095.48 263.512 1102.83 256.078 1111.32 248.33C1119.81 240.583 1129.46 233.12 1140.29 225.943C1146.33 221.727 1151.34 219.619 1155.33 219.619C1157.15 219.619 1158.94 222.126 1160.71 227.139C1162.48 232.152 1163.36 237.222 1163.36 242.349C1163.36 244.855 1160.91 248.672 1156.01 253.799Z"/>
<path d="M1188.65 254.141C1205.97 238.418 1222.77 226.74 1239.07 219.107C1255.36 211.473 1267.95 207.656 1276.84 207.656C1279.23 207.656 1281.45 208.653 1283.5 210.647C1285.55 212.641 1287.17 214.948 1288.37 217.569C1289.57 220.189 1290.17 222.126 1290.17 223.379C1290.17 225.43 1289.37 226.939 1287.77 227.908C1286.18 228.876 1283.39 230.044 1279.4 231.411C1280.2 233.234 1281.22 235.57 1282.47 238.418C1283.73 241.266 1284.7 243.574 1285.38 245.34C1286.06 247.105 1286.41 248.672 1286.41 250.039C1286.41 252.774 1283.64 257.872 1278.12 265.335C1272.59 272.797 1268.72 278.294 1266.5 281.826C1264.27 285.358 1263.16 289.688 1263.16 294.815C1263.16 303.246 1267.04 307.461 1274.78 307.461C1282.76 307.461 1295.24 299.999 1312.21 285.073L1312.21 295.498C1283.39 327.513 1262.76 343.521 1250.35 343.521C1245.9 343.521 1242.74 342.068 1240.86 339.163C1238.98 336.257 1238.04 331.957 1238.04 326.26C1238.04 317.259 1241.29 304.214 1247.78 287.124C1231.15 305.581 1218.79 318.712 1210.7 326.516C1202.61 334.321 1195.94 338.223 1190.7 338.223C1188.2 338.223 1185.06 336.058 1181.3 331.729C1177.54 327.399 1174.21 321.788 1171.31 314.895C1168.4 308.002 1166.95 300.853 1166.95 293.447C1166.95 288.093 1167.46 283.621 1168.49 280.032C1169.51 276.443 1171.5 272.769 1174.47 269.009C1177.43 265.249 1182.16 260.293 1188.65 254.141ZM1270.51 235.342C1240.89 248.9 1219.78 260.407 1207.19 269.863C1194.6 279.32 1188.31 289.061 1188.31 299.087C1188.31 302.733 1188.94 305.724 1190.19 308.059C1191.44 310.395 1193.15 311.563 1195.32 311.563C1196.57 311.563 1198.79 310.765 1201.98 309.17C1213.94 302.106 1224.88 292.906 1234.79 281.57C1244.71 270.234 1256.61 254.824 1270.51 235.342Z"/>
<path d="M1392.36 282.852L1392.36 295.498C1368.55 327.057 1349.18 342.837 1334.26 342.837C1326.17 342.837 1319.82 338.422 1315.2 329.592C1310.59 320.763 1308.28 309.17 1308.28 294.815C1308.28 283.194 1311.01 269.379 1316.48 253.372C1321.95 237.364 1329.27 221.129 1338.44 204.666C1347.62 188.202 1357.13 173.847 1366.98 161.599C1376.84 149.352 1385.98 140.778 1394.41 135.879C1397.83 133.828 1400.51 132.803 1402.45 132.803C1404.84 132.803 1406.43 133.857 1407.23 135.965C1408.03 138.072 1408.43 141.69 1408.43 146.817C1408.43 162.653 1401.99 182.107 1389.12 205.178C1376.24 228.25 1358.3 251.805 1335.28 275.845C1334.14 281.769 1333.57 286.327 1333.57 289.517C1333.57 296.808 1335.14 302.733 1338.27 307.29C1341.41 311.847 1345.76 314.126 1351.35 314.126C1354.2 314.126 1357.27 313.015 1360.58 310.794C1363.88 308.572 1367.35 305.809 1371 302.505C1374.65 299.201 1381.77 292.65 1392.36 282.852ZM1341.26 252.09C1347.19 246.279 1352.91 239.671 1358.44 232.266C1363.96 224.86 1369.18 216.942 1374.08 208.511C1378.98 200.08 1382.82 192.503 1385.61 185.781C1388.4 179.059 1389.8 173.989 1389.8 170.571C1389.8 167.951 1388.89 166.641 1387.06 166.641C1386.38 166.641 1385.07 167.267 1383.13 168.521C1376.18 174.217 1368.38 185.354 1359.72 201.931C1351.06 218.508 1344.91 235.228 1341.26 252.09Z"/>
</g>
</g>
</svg>
